<svg width="26" height="28" viewBox="0 0 26 28" fill="none" xmlns="http://www.w3.org/2000/svg">
<g id="Group 28133">
<g id="Group 28126">
<g id="Group 28125">
<path id="Path 24584" d="M24.2704 14.3234C24.1635 14.1046 24.1635 13.8537 24.2704 13.635L25.2616 11.6073C25.8134 10.4783 25.3762 9.1327 24.2662 8.54374L22.2725 7.48592C22.0574 7.37184 21.91 7.16878 21.8679 6.92904L21.478 4.70602C21.2608 3.4683 20.1159 2.63658 18.8719 2.81259L16.6373 3.12868C16.3961 3.16273 16.1576 3.08519 15.9826 2.91593L14.3605 1.34675C13.4573 0.472985 12.0424 0.472933 11.1393 1.34675L9.51716 2.91608C9.34214 3.0854 9.10364 3.16279 8.86249 3.12884L6.62784 2.81274C5.38343 2.63663 4.23893 3.46845 4.02181 4.70617L3.6319 6.92909C3.58981 7.16889 3.44235 7.37189 3.22731 7.48603L1.23365 8.54384C0.123618 9.13275 -0.313626 10.4785 0.238223 11.6075L1.22934 13.6351C1.33627 13.8538 1.33627 14.1047 1.22934 14.3235L0.238172 16.3511C-0.313677 17.4801 0.123567 18.8257 1.2336 19.4146L3.22725 20.4725C3.44235 20.5865 3.58981 20.7896 3.6319 21.0293L4.02181 23.2524C4.21946 24.3791 5.18562 25.1693 6.29601 25.1692C6.40538 25.1692 6.51635 25.1615 6.62789 25.1457L8.86254 24.8296C9.10354 24.7954 9.34219 24.8731 9.51721 25.0424L11.1393 26.6116C11.591 27.0485 12.1703 27.2669 12.7499 27.2669C13.3293 27.2668 13.909 27.0484 14.3605 26.6116L15.9826 25.0424C16.1576 24.8731 16.3962 24.7958 16.6373 24.8296L18.8719 25.1457C20.1165 25.3218 21.2608 24.49 21.478 23.2523L21.8679 21.0294C21.91 20.7896 22.0575 20.5866 22.2725 20.4725L24.2662 19.4146C25.3762 18.8257 25.8134 17.48 25.2616 16.351L24.2704 14.3234ZM23.5478 18.0606L21.5541 19.1184C20.9185 19.4557 20.4825 20.0557 20.3582 20.7645L19.9683 22.9874C19.8949 23.4062 19.5077 23.6875 19.0866 23.628L16.852 23.312C16.1393 23.211 15.4341 23.4404 14.9169 23.9407L13.2948 25.5098C12.9893 25.8053 12.5106 25.8053 12.2049 25.5098L10.5829 23.9406C10.1457 23.5178 9.57426 23.2886 8.97766 23.2886C8.86836 23.2886 8.75816 23.2963 8.64781 23.3119L6.41316 23.628C5.99242 23.6875 5.60495 23.4062 5.53146 22.9874L5.1415 20.7644C5.01713 20.0556 4.58124 19.4556 3.94556 19.1184L1.95191 18.0606C1.57633 17.8613 1.4284 17.406 1.6151 17.0241L2.60627 14.9964C2.92226 14.3499 2.92226 13.6084 2.60627 12.9619L1.6151 10.9342C1.4284 10.5522 1.57633 10.097 1.95191 9.89772L3.94556 8.83991C4.58119 8.50258 5.01713 7.90266 5.14144 7.19385L5.53135 4.97088C5.60485 4.55212 5.99196 4.27079 6.41306 4.33028L8.64771 4.64638C9.3601 4.74723 10.0655 4.51796 10.5828 4.01766L12.2049 2.44847C12.5104 2.15293 12.9891 2.15293 13.2947 2.44847L14.9168 4.01766C15.434 4.51802 16.1394 4.74723 16.8519 4.64638L19.0865 4.33028C19.5073 4.27074 19.8948 4.55212 19.9682 4.97088L20.3581 7.19391C20.4825 7.90272 20.9184 8.50268 21.5541 8.83991L23.5477 9.89772C23.9233 10.097 24.0712 10.5522 23.8845 10.9342L22.8933 12.9618C22.5774 13.6083 22.5774 14.3499 22.8933 14.9964L23.8845 17.024C24.0713 17.406 23.9233 17.8613 23.5478 18.0606Z" fill="white"/>
</g>
</g>
<g id="Group 28128">
<g id="Group 28127">
<path id="Path 24585" d="M18.3496 8.37949C18.0503 8.08021 17.565 8.08021 17.2658 8.37949L7.15012 18.4952C6.85084 18.7945 6.85084 19.2797 7.15012 19.579C7.29975 19.7286 7.4959 19.8035 7.69199 19.8035C7.8881 19.8035 8.0843 19.7287 8.23389 19.579L18.3495 9.46336C18.6489 9.16402 18.6489 8.67881 18.3496 8.37949Z" fill="white"/>
</g>
</g>
<g id="Group 28130">
<g id="Group 28129">
<path id="Path 24586" d="M9.68445 7.08179C8.13499 7.08179 6.87439 8.34239 6.87439 9.89186C6.87439 11.4413 8.13499 12.7019 9.68445 12.7019C11.2339 12.7019 12.4945 11.4413 12.4945 9.89186C12.4945 8.34239 11.2339 7.08179 9.68445 7.08179ZM9.68445 11.1691C8.98015 11.1691 8.40718 10.5961 8.40718 9.8918C8.40718 9.1875 8.98015 8.61453 9.68445 8.61453C10.3887 8.61453 10.9618 9.1875 10.9618 9.8918C10.9617 10.5961 10.3887 11.1691 9.68445 11.1691Z" fill="white"/>
</g>
</g>
<g id="Group 28132">
<g id="Group 28131">
<path id="Path 24587" d="M15.8153 15.2565C14.2659 15.2565 13.0052 16.5171 13.0052 18.0665C13.0052 19.616 14.2659 20.8766 15.8153 20.8766C17.3648 20.8766 18.6254 19.616 18.6254 18.0665C18.6254 16.5171 17.3648 15.2565 15.8153 15.2565ZM15.8153 19.3438C15.111 19.3438 14.538 18.7708 14.538 18.0665C14.538 17.3622 15.111 16.7892 15.8153 16.7892C16.5196 16.7892 17.0926 17.3622 17.0926 18.0665C17.0926 18.7708 16.5196 19.3438 15.8153 19.3438Z" fill="white"/>
</g>
</g>
</g>
</svg>
