<svg width="23" height="22" viewBox="0 0 23 22" fill="none" xmlns="http://www.w3.org/2000/svg">
<g id="Group 403">
<g id="Group 400">
<path id="Path 274" d="M21.0472 0.300049H7.68239C6.94333 0.300049 6.34592 0.89743 6.34592 1.63654V5.64595H2.3365C1.59741 5.64595 1 6.24338 1 6.98244V17.6743C1 19.8848 2.7989 21.6837 5.00943 21.6837H18.3742C20.5848 21.6837 22.3837 19.8848 22.3837 17.6743V1.63654C22.3837 0.89743 21.7862 0.300049 21.0472 0.300049ZM3.67296 8.31891H6.34592V17.6743C6.34592 18.4107 5.74583 19.0108 5.00943 19.0108C4.27307 19.0108 3.67296 18.4107 3.67296 17.6743V8.31891ZM19.7107 17.6743C19.7107 18.4107 19.1106 19.0108 18.3742 19.0108H8.77293C8.92267 18.5911 9.01888 18.1447 9.01888 17.6743V2.97299H19.7107V17.6743Z" fill="#BEC2C7" stroke="#F9F9FA" stroke-width="0.5"/>
</g>
<g id="Group 401">
<path id="Path 275" d="M13.0284 8.31894H15.7013C16.4404 8.31894 17.0378 7.72153 17.0378 6.9825C17.0378 6.24341 16.4404 5.646 15.7013 5.646H13.0284C12.2893 5.646 11.6919 6.24341 11.6919 6.9825C11.6919 7.72153 12.2893 8.31894 13.0284 8.31894Z" fill="#BEC2C7" stroke="#F9F9FA" stroke-width="0.5"/>
</g>
<g id="Group 402">
<path id="Path 276" d="M15.7013 10.9919H13.0284C12.2893 10.9919 11.6919 11.5894 11.6919 12.3284C11.6919 13.0675 12.2893 13.6649 13.0284 13.6649H15.7013C16.4404 13.6649 17.0378 13.0675 17.0378 12.3284C17.0378 11.5894 16.4404 10.9919 15.7013 10.9919Z" fill="#BEC2C7" stroke="#F9F9FA" stroke-width="0.5"/>
</g>
</g>
</svg>
