<svg width="38" height="27" viewBox="0 0 38 27" fill="none" xmlns="http://www.w3.org/2000/svg">
<g id="Group 28406">
<g id="Group 28405">
<path id="Path 25068" d="M22.7824 7.93054C22.2266 7.93054 21.6708 8.13011 21.6708 8.60034V13.4453L19.3623 9.04208C18.8208 8.00182 18.5216 7.93054 17.7236 7.93054C17.1678 7.93054 16.6121 8.14432 16.6121 8.61453V17.6632C16.6121 18.1192 17.1678 18.3472 17.7236 18.3472C18.2793 18.3472 18.8351 18.1192 18.8351 17.6632V12.8182L21.5425 17.7487C21.8133 18.2475 22.2693 18.3473 22.7823 18.3473C23.338 18.3473 23.8937 18.1193 23.8937 17.6633V8.60028C23.8937 8.13011 23.338 7.93054 22.7824 7.93054Z" fill="black" stroke="white" stroke-width="0.6"/>
<path id="Path 25069" d="M14.9736 9.86852C15.4011 9.86852 15.6434 9.41257 15.6434 8.88533C15.6434 8.42931 15.4439 7.93054 14.9736 7.93054H9.90063C9.41614 7.93054 8.93164 8.15852 8.93164 8.61453V17.6633C8.93164 18.1193 9.41614 18.3473 9.90063 18.3473H14.9736C15.4439 18.3473 15.6434 17.8485 15.6434 17.3925C15.6434 16.8653 15.4011 16.4093 14.9736 16.4093H11.1547V13.9868H13.2922C13.7625 13.9868 13.9619 13.5309 13.9619 13.1461C13.9619 12.6901 13.7197 12.2768 13.2922 12.2768H11.1547V9.86852H14.9736Z" fill="black" stroke="white" stroke-width="0.6"/>
<path id="Path 25070" d="M32.2633 13.1563L37.3954 2.35188C37.6054 1.90977 37.5742 1.39081 37.3127 0.977097C37.0511 0.563385 36.5957 0.3125 36.1063 0.3125H2.42709C1.63891 0.3125 1 0.951416 1 1.73958V24.573C1 25.3611 1.63891 26 2.42709 26H36.1063C36.5957 26 37.0511 25.7492 37.3126 25.3355C37.5741 24.9217 37.6054 24.4029 37.3953 23.9607L32.2633 13.1563ZM3.85417 23.1459V3.16667H33.8485L29.3943 12.544C29.2103 12.9314 29.2103 13.3811 29.3943 13.7686L33.8485 23.1459H3.85417Z" fill="black" stroke="white" stroke-width="0.6"/>
</g>
</g>
</svg>
