<svg width="19" height="17" viewBox="0 0 19 17" fill="none" xmlns="http://www.w3.org/2000/svg">
<g id="Group 28148">
<path id="Path 269" d="M18.458 14.3411C16.4666 12.3497 16.4666 10.4493 16.4666 6.99962C16.4666 3.1405 13.3273 0 9.46697 0C5.60667 0 2.46734 3.1405 2.46734 6.99962C2.46734 10.4493 2.46734 12.3497 0.475947 14.3411C0.142302 14.6747 0.0419696 15.1763 0.222792 15.6127C0.40362 16.049 0.829432 16.3325 1.30074 16.3325H17.6332C18.1045 16.3325 18.5303 16.049 18.7111 15.6127C18.892 15.1763 18.7916 14.6747 18.458 14.3411ZM9.46697 2.33321C12.0405 2.33321 14.1334 4.42609 14.1334 6.99962C14.1334 7.81858 14.1462 8.5862 14.18 9.33283H4.75389C4.78772 8.5862 4.80055 7.81858 4.80055 6.99962C4.80055 4.42609 6.89344 2.33321 9.46697 2.33321ZM3.64794 13.9992C4.06092 13.2491 4.29308 12.4675 4.4634 11.666H14.4705C14.6409 12.4675 14.873 13.2491 15.286 13.9992H3.64794Z" fill="#363C45"/>
</g>
</svg>
