<svg width="20" height="19" viewBox="0 0 20 19" fill="none" xmlns="http://www.w3.org/2000/svg">
<g id="Group 319">
<path id="Path 210" d="M19.605 6.93267C19.4623 6.49372 19.085 6.17568 18.6291 6.10917L13.4088 5.34976L11.0737 0.62035C10.6686 -0.206783 9.31181 -0.206783 8.90671 0.62035L6.57163 5.34976L1.35127 6.10917C0.895376 6.17568 0.518088 6.49372 0.375396 6.93267C0.233912 7.36922 0.35121 7.84929 0.681338 8.17096L4.45906 11.8532L3.56663 17.0517C3.48923 17.5052 3.67546 17.9635 4.04791 18.2332C4.42278 18.5065 4.91737 18.5428 5.32247 18.3251L9.9902 15.8715L14.6579 18.3251C14.8357 18.4194 15.0292 18.4654 15.2215 18.4654C15.4718 18.4654 15.7209 18.3868 15.9325 18.2332C16.3049 17.9635 16.4912 17.5052 16.4138 17.0517L15.5213 11.8532L19.2991 8.17096C19.6292 7.84929 19.7465 7.36922 19.605 6.93267ZM13.3785 10.5641C13.0932 10.8422 12.9638 11.2425 13.0315 11.6343L13.6156 15.0456L10.5537 13.4361C10.376 13.3417 10.1837 13.2958 9.9902 13.2958C9.79672 13.2958 9.60445 13.3417 9.42669 13.4361L6.36485 15.0456L6.94892 11.6343C7.01664 11.2425 6.88725 10.8422 6.60186 10.5641L4.12409 8.14919L7.5475 7.65097C7.94293 7.59414 8.28273 7.34624 8.45807 6.98951L9.9902 3.88778L11.5223 6.98951C11.6977 7.34624 12.0375 7.59414 12.4329 7.65097L15.8563 8.14919L13.3785 10.5641Z" fill="#363C45"/>
</g>
</svg>
