<svg width="9" height="9" viewBox="0 0 9 9" fill="none" xmlns="http://www.w3.org/2000/svg">
<g id="Group 28171">
<path id="Path 24615" d="M6.17733 2.03406H0.430982C0.192911 2.03406 0 2.22696 0 2.46503V8.21133C0 8.44943 0.192911 8.6423 0.430982 8.6423H6.17733C6.4154 8.6423 6.6083 8.44943 6.6083 8.21133V2.46503C6.6083 2.22696 6.4154 2.03406 6.17733 2.03406ZM5.74635 7.78036H0.861949V2.89597H5.74635V7.78036Z" fill="#363C45"/>
<path id="Path 24616" d="M8.58077 7.25034H8.11334V2.22059H8.58077C8.61529 2.22059 8.64645 2.19982 8.65963 2.16785C8.67297 2.13589 8.66567 2.09924 8.64111 2.07473L7.8865 1.32011C7.85308 1.28669 7.79894 1.28669 7.76559 1.32011L7.01092 2.07473C6.98638 2.09927 6.97909 2.13589 6.99242 2.16785C7.00561 2.19982 7.03677 2.22059 7.07128 2.22059H7.53869V7.25034H7.07128C7.03674 7.25034 7.00561 7.2711 6.99242 7.30306C6.97912 7.33508 6.98638 7.37171 7.01092 7.39625L7.76559 8.15089C7.79894 8.18427 7.85311 8.18427 7.8865 8.15089L8.64111 7.39625C8.6657 7.37171 8.67297 7.33509 8.65963 7.30306C8.64645 7.2711 8.61532 7.25034 8.58077 7.25034Z" fill="#363C45"/>
<path id="Path 24617" d="M1.24597 1.65529C1.27051 1.67984 1.30713 1.68714 1.33913 1.67381C1.37111 1.66063 1.39188 1.62948 1.39188 1.59496V1.12753H6.42162V1.59496C6.42162 1.62948 6.44238 1.66063 6.47437 1.67381C6.50633 1.68714 6.54297 1.67984 6.56752 1.65529L7.32215 0.90067C7.35555 0.867253 7.35555 0.8131 7.32215 0.779713L6.56752 0.0251053C6.54297 0.000546305 6.50637 -0.0067474 6.47437 0.00657353C6.44238 0.0197647 6.42162 0.0509079 6.42162 0.0854233V0.552907H1.39188V0.0854233C1.39188 0.0509232 1.37113 0.0197647 1.33913 0.00657353C1.30714 -0.0067474 1.27051 0.000546305 1.24597 0.0251053L0.491357 0.779713C0.457959 0.8131 0.457959 0.867253 0.491357 0.90067L1.24597 1.65529Z" fill="#363C45"/>
</g>
</svg>
