<svg width="23" height="22" viewBox="0 0 23 22" fill="none" xmlns="http://www.w3.org/2000/svg">
<g id="Group 276">
<path id="Path 178" d="M20.9069 0.300049H2.10405C1.36134 0.300049 0.760986 0.900398 0.760986 1.64311V15.0737C0.760986 15.8165 1.36134 16.4168 2.10405 16.4168H6.13324V20.446C6.13324 20.9886 6.4596 21.4802 6.96191 21.687C7.12845 21.7568 7.30305 21.7891 7.4763 21.7891C7.8255 21.7891 8.16932 21.6521 8.42585 21.3955L13.4046 16.4168H20.9069C21.6497 16.4168 22.25 15.8165 22.25 15.0737V1.64311C22.25 0.900398 21.6497 0.300049 20.9069 0.300049ZM19.5639 13.7307H12.8486C12.4913 13.7307 12.1502 13.8717 11.899 14.1242L8.81937 17.2038V15.0737C8.81937 14.331 8.21902 13.7307 7.4763 13.7307H3.44711V2.98618H19.5639V13.7307Z" fill="#BEC2C7" stroke="#FAFAFB" stroke-width="0.4"/>
</g>
</svg>
