<svg width="30" height="24" viewBox="0 0 30 24" fill="none" xmlns="http://www.w3.org/2000/svg">
<g id="Icon">
<path id="Path 18" d="M15.9009 9.24011C15.3467 7.20007 13.4252 5.69531 11.1403 5.69531C8.42249 5.69531 6.21899 7.82422 6.21899 10.4503C6.21899 11.996 6.98218 13.3696 8.16455 14.2382" stroke="#363C45" stroke-width="1.6" stroke-linecap="round"/>
<path id="Path 19" d="M25.1415 22.491C27.1354 22.4021 29 21.0341 29 18.949C29 17.9945 28.6287 17.0896 28.1013 16.4546C27.436 15.4932 26.2543 14.8182 24.908 14.8182C24.7906 14.8182 24.6744 14.8052 24.5599 14.8148C24.6802 14.3661 24.7439 13.8854 24.7439 13.3984C24.7439 10.4073 22.3257 7.97778 19.3427 7.97778C16.3594 7.97778 13.9407 10.4005 13.9407 13.3922C13.9407 13.505 13.9441 13.6161 13.9509 13.7271C13.3142 13.4725 12.6074 13.3301 11.863 13.3301C9.06042 13.3301 6.78857 15.3389 6.78857 17.818C6.78857 20.1422 8.06714 22.2557 10.5372 22.4744L25.1415 22.491Z" stroke="#363C45" stroke-width="1.6" stroke-linecap="round"/>
<line id="Line 21" x1="9.69048" y1="1.47808" x2="9.69048" y2="0.799986" stroke="#363C45" stroke-width="1.6" stroke-linecap="round"/>
<line id="Line 22" x1="2.28667" y1="11.6209" x2="1.60858" y2="11.6209" stroke="#363C45" stroke-width="1.6" stroke-linecap="round"/>
<line id="Line 23" x1="17.0037" y1="3.46116" x2="17.6534" y2="2.81141" stroke="#363C45" stroke-width="1.6" stroke-linecap="round"/>
<line id="Line 24" x1="3.98484" y1="4.59253" x2="3.33509" y2="3.94278" stroke="#363C45" stroke-width="1.6" stroke-linecap="round"/>
</g>
</svg>
