<svg width="10" height="10" viewBox="0 0 10 10" fill="none" xmlns="http://www.w3.org/2000/svg">
<path id="Path 24614" d="M9.91241 7.12513L7.88474 5.11573C8.20125 4.22401 7.87204 3.21527 7.0502 2.69782V1.46472C7.0502 1.38703 7.01932 1.3125 6.96438 1.25757L5.79261 0.0857934C5.73765 0.0308567 5.66315 0 5.58546 0H0.292944C0.131161 0 0 0.131161 0 0.292944V4.43321C0 4.595 0.131161 4.72616 0.292944 4.72616H2.38442C2.48287 5.39786 2.91493 5.98378 3.53485 6.27858V6.65543L3.03478 7.1555C2.92037 7.26991 2.92037 7.45538 3.03478 7.56978L3.41352 7.94854L3.03478 8.32728C2.92037 8.44168 2.92037 8.62715 3.03478 8.74156L4.20655 9.91333C4.32094 10.0277 4.50643 10.0277 4.62083 9.91333L5.20672 9.32744C5.26164 9.27253 5.29252 9.198 5.29252 9.12031V6.37104C5.72666 6.517 6.20617 6.51329 6.64138 6.35936L6.90802 6.626V7.33322C6.90802 7.495 7.03918 7.62616 7.20097 7.62616H7.73658V8.1618C7.73658 8.32358 7.86774 8.45475 8.02953 8.45475H9.7062C9.86798 8.45475 9.99914 8.32358 9.99914 8.1618V7.33322C9.99914 7.25506 9.96792 7.18015 9.91241 7.12513ZM0.585887 0.585887H5.46412L6.46429 1.58606V2.44614C6.04698 2.3398 5.59878 2.36529 5.18549 2.53351C5.034 2.47174 4.87353 2.42759 4.70663 2.4036V1.79672H4.99957C5.16136 1.79672 5.29252 1.66556 5.29252 1.50378C5.29252 1.34199 5.16136 1.21083 4.99957 1.21083H3.8278C3.66601 1.21083 3.53485 1.34199 3.53485 1.50378C3.53485 1.66556 3.66601 1.79672 3.8278 1.79672H4.12074V2.40362C3.22402 2.53246 2.51293 3.24355 2.38409 4.14027H0.585887V0.585887ZM4.70663 6.08325V8.99898L4.41368 9.29192L3.65619 8.53443L4.03493 8.15569C4.14933 8.04128 4.14933 7.85581 4.03493 7.74141L3.65619 7.36265L4.03493 6.98391C4.08986 6.92898 4.12074 6.85445 4.12074 6.77676V6.08325C4.12074 5.9593 4.04272 5.84874 3.92591 5.80722C3.34161 5.5995 2.94902 5.0474 2.94897 4.43335C2.94902 3.72605 3.45302 3.13407 4.12074 2.99799V3.84733C4.12074 4.00911 4.2519 4.14027 4.41368 4.14027C4.57547 4.14027 4.70663 4.00911 4.70663 3.84733V2.99797C5.37438 3.13405 5.8784 3.72585 5.8784 4.43321C5.8784 5.04732 5.4858 5.5995 4.90146 5.80722C4.78465 5.84874 4.70663 5.95928 4.70663 6.08325ZM9.41326 7.86884H8.32247V7.3332C8.32247 7.17142 8.19131 7.04026 8.02953 7.04026H7.49391V6.50464C7.49391 6.42695 7.46303 6.35244 7.4081 6.29749L6.91771 5.8071C6.83006 5.71943 6.69671 5.69645 6.58479 5.74968C6.35418 5.85932 6.09944 5.90565 5.8495 5.88897C6.23376 5.51199 6.46429 4.99104 6.46429 4.43321C6.46429 3.86184 6.22929 3.34438 5.851 2.97217C6.96942 2.89092 7.75801 4.04319 7.27457 5.05988C7.22114 5.17227 7.24454 5.30615 7.33293 5.39376L9.41326 7.45532V7.86884Z" fill="#363C45"/>
</svg>
